<?xml version="1.0" encoding="utf-8"?>
<!-- Generator: Adobe Illustrator 27.0.0, SVG Export Plug-In . SVG Version: 6.00 Build 0)  -->
<svg version="1.1" id="Layer_1" xmlns="http://www.w3.org/2000/svg" xmlns:xlink="http://www.w3.org/1999/xlink" x="0px" y="0px"
	 viewBox="0 0 1291.4 315.8" style="enable-background:new 0 0 1291.4 315.8;" xml:space="preserve">
<style type="text/css">
	.st0{fill:#FF6600;}
</style>
<g>
	<path class="st0" d="M101.6,132.5l-42.9,42.9c-3.6,3.6-9.5,3.6-13.1,0L2.7,132.5c-3.6-3.6-3.6-9.5,0-13.1l42.9-42.9
		c3.6-3.6,9.5-3.6,13.1,0l42.9,42.9C105.2,123.1,105.2,128.9,101.6,132.5z"/>
	<path d="M260.4,45.6L217.5,2.7c-3.6-3.6-9.5-3.6-13.1,0l-35.2,35.2H149L113.7,2.7c-3.6-3.6-9.5-3.6-13.1,0L57.7,45.6
		c-3.6,3.6-3.6,9.5,0,13.1l42.9,42.9c3.6,3.6,9.5,3.6,13.1,0l38-38h14.6l38,38c3.6,3.6,9.5,3.6,13.1,0l42.9-42.9
		C264,55.1,264,49.3,260.4,45.6z"/>
	<path d="M260.4,193.3l-42.9-42.9c-3.6-3.6-9.5-3.6-13.1,0l-35.2,35.2H149l-35.2-35.2c-3.6-3.6-9.5-3.6-13.1,0l-42.9,42.9
		c-3.6,3.6-3.6,9.5,0,13.1l42.9,42.9c3.6,3.6,9.5,3.6,13.1,0l38-38h14.6l38,38c3.6,3.6,9.5,3.6,13.1,0l42.9-42.9
		C264,202.7,264,196.9,260.4,193.3z"/>
</g>
<g>
	<g>
		<path d="M471.8,191.8c-1.8,0-3.9,0.7-6.4,2l-0.2,0.1c-2.1,1.4-5,3.1-8.5,5.1c-3.4,1.9-7.4,3.8-11.6,5.5c-4.3,1.7-9,3.2-14.2,4.4
			c-5.1,1.2-10.5,1.8-16.1,1.8c-10.2,0-19.9-1.9-28.6-5.6c-8.8-3.7-16.5-9.1-23-16.1s-11.7-15.8-15.4-26
			c-3.7-10.3-5.6-22.3-5.6-35.7c0-13.2,1.8-25.1,5.4-35.4c3.5-10.2,8.6-19.1,15.1-26.3s14.3-12.7,23.2-16.5c9-3.8,19-5.7,29.7-5.7
			c10.6,0,19.8,1.6,27.5,4.9c7.9,3.3,14.2,6.6,18.8,9.8l0.4,0.2c2.3,1.1,4.3,1.7,6,1.7c2.2,0,5.4-0.8,8.2-4.5l5.1-7.5l-2-1.8
			c-17-15.3-38.6-23.1-64.1-23.1c-15.1,0-28.8,2.7-40.9,8s-22.6,12.7-31.1,22s-15.2,20.4-19.8,33c-4.6,12.6-6.9,26.5-6.9,41.3
			c0,14.2,2.1,27.8,6.4,40.4c4.2,12.6,10.5,23.8,18.7,33.2s18.3,16.9,30.3,22.3c11.9,5.4,25.7,8.1,41,8.1c14.3,0,27.6-2.4,39.5-7.3
			c11.9-4.8,22.1-11.6,30.3-20.2l1.8-1.9l-4.6-5.9C477.2,192.6,474,191.8,471.8,191.8z"/>
		<rect x="510.2" y="20.2" width="23.9" height="209.1"/>
		<path d="M659.8,98.6c-4.6-4.7-10.2-8.4-16.6-11c-6.4-2.6-13.7-3.9-21.6-3.9c-11,0-20.7,1.8-28.8,5.4c-8.1,3.5-15.4,8.7-21.9,15.4
			l-1.7,1.7l4.7,7l0.1,0.1c2.1,2.8,4.5,4.3,7.1,4.3c2.4,0,4.9-1.1,7.9-3.3c4.7-3.5,9.5-6.3,14.2-8.2c4.6-1.9,10-2.9,16.1-3.1
			c4.5-0.2,8.8,0.6,12.7,2.1c3.9,1.6,7.3,3.9,10.1,6.8s5.1,6.5,6.7,10.7c1.6,4.2,2.4,9.1,2.4,14.4v12.6c-15,0.6-28.2,2.1-39,4.4
			c-11.6,2.4-21.2,5.6-28.4,9.5c-7.4,4-12.9,8.6-16.4,13.8c-3.5,5.3-5.3,10.8-5.3,16.6c0,6.1,1.1,11.5,3.2,16.1
			c2.1,4.6,5,8.5,8.6,11.7c3.6,3.1,7.8,5.5,12.4,7.1c4.5,1.5,9.5,2.5,14.7,2.9c1.9,0.2,3.8,0.2,5.7,0.2c9.9,0,18.8-2.1,26.6-6.4
			c7.4-4,14.1-9.3,19.9-15.8c0.4,2.3,0.8,3.9,1.2,5c0.9,4.1,1.7,7.1,2.4,9.2c1,3.4,3.6,5.3,7.1,5.3h10.5v-91.6
			c0-7.9-1.3-15.2-3.8-21.8C668,109.1,664.4,103.3,659.8,98.6z M651.2,165.7v23.6c-2.5,3-5.4,6.1-8.6,9.2c-3.4,3.3-7.2,6.2-11.4,8.7
			c-4.2,2.4-8.7,4.3-13.4,5.6c-4.5,1.3-9.3,1.6-14.2,0.9c-5.6-0.8-10.2-2.9-13.5-6.1c-3.2-3.1-4.9-8.1-4.9-14.9
			c0-8.3,5.2-14.4,16-18.7C612.3,169.5,629.1,166.7,651.2,165.7z"/>
		<path d="M774.6,87.6c-3.1-0.8-7.2-1.2-12.5-1.2c-4.3,0-8.7,0.6-13.1,1.9c-4.4,1.3-8.6,3.2-12.4,5.6c-3.8,2.5-7.3,5.6-10.3,9.4
			c-0.7,0.8-1.3,1.7-1.9,2.6c-0.2-2-0.5-4-0.8-6.2c-0.4-2.7-0.8-4.8-1.2-6.6c-1.1-4.2-4-6.7-8.2-6.7h-11v142.9h23.9V143
			c0-4.7,0.9-9.1,2.6-13.1c1.8-4.1,4.1-7.8,6.9-10.9c2.8-3.1,6-5.7,9.5-7.6s7.1-3.2,10.6-3.7c5.5-0.8,8.3-0.6,9.6-0.3
			c2.7,0.6,4.9,0.8,6.7,0.6c2.4-0.1,6.3-1.2,7.7-7.9c0.5-1.3,1-2.6,1.4-4.1c0.4-1,0.7-2.1,0.9-3.1l0.6-2.8l-2.8-0.7
			C779.6,88.9,777.4,88.4,774.6,87.6z"/>
		<path d="M815.6,21.9c-4.5,0-8.5,1.8-11.7,5.2s-4.8,7.5-4.8,12.1s1.6,8.7,4.6,12.1c3.2,3.5,7.2,5.3,11.9,5.3c4.8,0,9-1.6,12.6-4.7
			c3.7-3.2,5.6-7.5,5.6-12.6c0-4.7-1.8-8.8-5.5-12.3C824.7,23.6,820.4,21.9,815.6,21.9z"/>
		<rect x="804.1" y="86.4" width="23.9" height="142.9"/>
		<path d="M937.2,158.8c-4.1-2.8-8.8-5.2-13.9-7.1c-4.9-1.9-10-3.5-15-4.8c-4.3-1.4-8.5-2.9-12.4-4.2c-3.7-1.3-7.1-2.8-9.9-4.6
			c-2.7-1.6-4.8-3.6-6.4-5.9c-1.5-2.2-2.2-4.8-2.2-8.1c0-6,2.4-10.8,7.5-14.6c5.2-3.9,12.2-5.9,20.7-5.9c5.2,0,9.9,0.5,13.9,1.6
			c4,1,8.7,3,14,5.8c4.3,2.1,8.2,1.2,10.5-2.4l5.3-8l-2-1.7c-11.5-9.8-25.8-14.8-42.2-14.8c-7.8,0-15,1.1-21.3,3.3
			c-6.3,2.2-11.7,5.3-16,9c-4.4,3.8-7.7,8.2-10,13.2s-3.4,10.2-3.4,15.6c0,6.8,1.4,12.6,4.1,17.2c2.7,4.6,6.2,8.4,10.5,11.4
			c4.2,2.9,8.8,5.3,13.9,7.1c4.9,1.7,9.9,3.4,14.9,4.9c4.3,1.3,8.5,2.5,12.6,3.8c3.8,1.2,7.1,2.7,9.8,4.4c2.6,1.6,4.6,3.6,6.1,5.9
			c1.4,2.2,2.1,5.1,2.1,8.7c0,6.6-2.4,12-7.3,16.6c-4.9,4.6-12.3,6.9-22,6.9c-4.7,0-8.9-0.4-12.5-1.2s-6.7-1.7-9.2-2.7
			s-4.5-2-5.9-2.9c-1.6-1-2.7-1.7-3.6-2.1c-2.6-1.7-4.9-2.3-7-1.8c-1.2,0.3-2.9,1-4.2,3.1l-6.1,9.7l2.1,1.7
			c5.5,4.4,12.3,8.2,20.1,11.2c7.9,3.1,16.2,4.6,24.8,4.6c8.4,0,16-1.2,22.6-3.5c6.7-2.3,12.4-5.6,17-9.7c4.6-4.1,8.2-9.1,10.6-14.7
			c2.4-5.6,3.5-11.6,3.5-17.9c0-6.4-1.4-11.9-4-16.3C945,165.4,941.5,161.7,937.2,158.8z"/>
		<path d="M1084.3,104.1c-5.9-6.5-13.1-11.5-21.5-15c-8.3-3.4-17.8-5.2-28.1-5.2c-10.3,0-19.7,1.7-28.1,5.2
			c-8.4,3.5-15.6,8.5-21.5,15c-5.9,6.4-10.5,14.2-13.7,23.2c-3.2,8.9-4.9,19.1-4.9,30.3c0,10.2,1.4,19.8,4.3,28.7
			c2.9,8.9,7.2,16.8,13,23.5s13,12.1,21.5,16c8.5,3.8,18.3,5.8,29.4,5.8c10.3,0,19.7-1.7,28.1-5.2s15.6-8.6,21.5-15.1
			s10.4-14.4,13.4-23.5c3-9,4.6-19.1,4.6-30.1c0-11.1-1.5-21.3-4.6-30.2C1094.7,118.4,1090.1,110.5,1084.3,104.1z M1034.7,102.6
			c14.6,0,25.1,4.6,32.1,14c7.1,9.5,10.7,23.4,10.7,41.3c0,17.7-3.6,31.4-10.7,41c-7,9.4-17.5,14-32.1,14c-14.8,0-25.4-4.6-32.5-14
			c-7.2-9.5-10.8-23.3-10.8-41c0-7.3,0.7-14.5,2.1-21.3c1.4-6.7,3.8-12.6,7.1-17.6c3.3-4.9,7.7-8.9,13.2-11.9
			C1019.2,104.1,1026.3,102.6,1034.7,102.6z"/>
		<path d="M1287.2,212.4c-1.3-3.3-3.9-4-5.3-4.1c-1.7-0.1-3.3,0.1-4.7,0.6c-3.1,1.3-5.7,2.3-7.8,3c-1.8,0.6-4.2,0.8-7.2,0.7h-0.2
			c-4.9,0-8.6-1.5-11.5-4.6s-4.3-7.9-4.3-14.2v-88.3h41.7V87h-41.7V39.8h-9.9c-2.1,0-6.9,0.7-7.7,7.7c-0.2,1.8-0.5,4.7-1.1,8.4
			c-0.6,3.9-1.1,7.9-1.8,12.1c-0.7,4.3-1.2,8.4-1.7,12.2c-0.3,2.6-0.6,4.7-0.9,6.5h-27l0,0h-41.7V72c0-6.4,0.8-11.8,2.3-16.1
			c1.5-4.2,3.5-7.5,6.1-10.1c2.5-2.5,5.6-4.3,9.1-5.5c3.7-1.2,7.9-1.8,12.3-1.8h3.6c1.9,0,3.6-0.3,5-0.9c1.2-0.5,3.4-1.9,3.8-5.6
			l0.4-9l-2.4-0.6c-4.6-1.2-9.5-1.7-14.5-1.7c-14.7,0-26.7,4.4-35.5,13.1s-13.3,21.4-13.3,37.6v15.2H1109V98c0,1.7,0.8,4.8,6.2,6
			l16.4,1.5v123.9h23.9V105.1h32.3v0.3h34.6v90v0.1c1.2,23.7,13.1,36.2,34.5,36.2c6.3,0,12.2-0.8,17.3-2.5c5.1-1.6,10.2-4.1,15-7.4
			l2.2-1.5L1287.2,212.4z"/>
	</g>
</g>
<g>
	<path d="M656.6,304.6H649l-2.8-7.3h-17.5l-2.8,7.3h-7.6l15-38.2h8.4L656.6,304.6z M644.3,291.3l-6.9-18.2l-6.9,18.2H644.3z"/>
	<path d="M715.3,304.6h-6.7v-28.4l-11.8,28.4h-2.9l-11.7-28.4v28.4h-6.7v-38.2h9.5l10.4,25.2l10.4-25.2h9.5V304.6z"/>
	<path d="M735.7,305.3c-4.3,0-7.7-1.4-10.3-4.2c-2.6-2.8-3.9-6.3-3.9-10.3c0-4.1,1.3-7.5,3.9-10.3c2.6-2.8,6-4.2,10.3-4.2
		s7.8,1.4,10.4,4.2c2.6,2.8,3.9,6.2,3.9,10.3c0,4.1-1.3,7.6-3.9,10.4C743.5,303.9,740,305.3,735.7,305.3z M735.7,299.9
		c2.5,0,4.4-0.9,5.9-2.7c1.4-1.8,2.2-4,2.2-6.6s-0.7-4.7-2.2-6.5c-1.4-1.8-3.4-2.7-5.9-2.7c-2.4,0-4.4,0.9-5.8,2.7
		c-1.4,1.8-2.1,3.9-2.1,6.5s0.7,4.8,2.1,6.6S733.3,299.9,735.7,299.9z"/>
	<path d="M781.6,304.6h-6v-3.8c-2.3,3-5.3,4.5-8.9,4.5c-3.6,0-6.6-1.3-8.9-3.9c-2.3-2.6-3.4-6.1-3.4-10.6c0-4.4,1.1-8,3.4-10.6
		c2.3-2.6,5.3-4,8.9-4c3.6,0,6.6,1.5,8.9,4.5v-14.4h6V304.6z M768.4,299.9c1.4,0,2.8-0.3,4.1-1s2.4-1.6,3-2.6v-11
		c-0.7-1.1-1.7-2-3-2.7s-2.7-1.1-4.1-1.1c-2.4,0-4.3,0.9-5.7,2.6s-2.1,3.9-2.1,6.7c0,2.7,0.7,4.9,2.1,6.6S766,299.9,768.4,299.9z"/>
	<path d="M814.1,304.6h-6v-3.7c-2.6,2.9-5.9,4.4-9.8,4.4c-5.9,0-8.9-2.9-8.9-8.8v-19.6h6v17.4c0,2,0.5,3.5,1.4,4.3
		c1,0.9,2.3,1.3,4.1,1.3c1.5,0,2.8-0.3,4.1-1s2.3-1.5,3-2.6v-19.4h6v27.7H814.1z"/>
	<path d="M831.3,305.3c-5,0-8.9-1.4-11.9-4.3l2.8-4.4c1,1.1,2.4,2,4.2,2.8s3.5,1.1,5.2,1.1c1.8,0,3.1-0.3,4-1s1.4-1.6,1.4-2.7
		c0-1-0.6-1.8-1.7-2.3c-1.1-0.6-2.5-1-4.2-1.3c-1.6-0.3-3.3-0.7-4.9-1.2c-1.6-0.5-3-1.3-4.2-2.6c-1.1-1.2-1.7-2.8-1.7-4.8
		c0-2.4,1-4.4,2.9-6s4.6-2.4,8-2.4c4.2,0,7.8,1.3,10.8,3.9l-2.5,4.2c-0.9-1-2-1.8-3.5-2.4s-3-0.9-4.7-0.9c-1.6,0-2.8,0.3-3.8,0.9
		c-0.9,0.6-1.4,1.4-1.4,2.4c0,0.8,0.4,1.4,1.2,1.9s1.9,0.8,3.1,1.1c1.2,0.2,2.6,0.5,4,0.9c1.5,0.4,2.8,0.9,4,1.4s2.3,1.4,3.1,2.6
		s1.2,2.7,1.2,4.4c0,2.5-1,4.6-3,6.2C837.8,304.4,835,305.3,831.3,305.3z"/>
	<path d="M882.2,305.3c-5.7,0-10.5-1.8-14.3-5.5s-5.7-8.4-5.7-14.2c0-5.8,1.9-10.6,5.7-14.2c3.8-3.7,8.6-5.5,14.3-5.5
		c6.7,0,11.8,2.9,15.4,8.6l-5.7,2.9c-1-1.6-2.3-3-4-4s-3.6-1.5-5.6-1.5c-3.8,0-6.9,1.3-9.4,3.9s-3.8,5.9-3.8,9.9s1.3,7.3,3.8,9.9
		s5.6,3.9,9.4,3.9c2,0,3.9-0.5,5.6-1.5c1.7-1,3.1-2.4,4-4l5.7,2.9C893.9,302.4,888.8,305.3,882.2,305.3z"/>
	<path d="M908.8,304.6h-6v-27.7h6v4.1c1.1-1.4,2.4-2.5,4-3.4s3.3-1.3,5-1.3v6c-0.5-0.1-1.2-0.2-1.9-0.2c-1.3,0-2.6,0.4-4,1.1
		s-2.5,1.6-3.1,2.6V304.6z"/>
	<path d="M935.4,305.3c-4.2,0-7.7-1.3-10.4-4s-4.1-6.2-4.1-10.5c0-4.1,1.3-7.5,4-10.3s6-4.2,10.1-4.2s7.4,1.4,9.9,4.2
		c2.5,2.8,3.8,6.4,3.8,10.8v1.4h-21.4c0.2,2.2,1.1,4,2.7,5.4c1.6,1.5,3.6,2.2,6.1,2.2c1.4,0,2.8-0.3,4.3-0.8
		c1.4-0.5,2.6-1.3,3.6-2.2l2.8,4C943.9,303.9,940.1,305.3,935.4,305.3z M942.8,288.5c-0.1-1.9-0.8-3.6-2.1-5.1s-3.2-2.2-5.7-2.2
		c-2.4,0-4.2,0.7-5.6,2.2c-1.3,1.5-2.1,3.2-2.2,5.1H942.8z"/>
	<path d="M977.5,304.6h-6v-3c-2.1,2.4-5.1,3.7-8.9,3.7c-2.5,0-4.8-0.8-6.7-2.4s-2.9-3.9-2.9-6.7c0-2.9,1-5.2,2.9-6.7
		s4.2-2.3,6.7-2.3c3.9,0,6.9,1.2,8.9,3.6v-4.1c0-1.6-0.6-2.9-1.8-3.8s-2.8-1.4-4.7-1.4c-3.1,0-5.8,1.2-8.2,3.5l-2.5-4.2
		c3.1-3,7-4.5,11.6-4.5c3.4,0,6.2,0.8,8.3,2.4s3.2,4.1,3.2,7.6v18.3H977.5z M964.9,301.1c3,0,5.2-1,6.6-2.9V294
		c-1.4-1.9-3.6-2.9-6.6-2.9c-1.7,0-3.1,0.5-4.2,1.4c-1.1,0.9-1.7,2.1-1.7,3.6s0.6,2.7,1.7,3.6C961.8,300.7,963.2,301.1,964.9,301.1z
		"/>
	<path d="M993.6,305.3c-2.3,0-4.1-0.6-5.3-1.8c-1.2-1.2-1.8-3-1.8-5.3v-16h-4.6v-5.3h4.6v-7.6h6v7.6h5.6v5.3h-5.6v14.5
		c0,1,0.2,1.8,0.7,2.4s1.1,0.9,1.9,0.9c1.2,0,2.1-0.3,2.7-1l1.4,4.5C998,304.7,996.2,305.3,993.6,305.3z"/>
	<path d="M1016.4,305.3c-4.2,0-7.7-1.3-10.4-4s-4.1-6.2-4.1-10.5c0-4.1,1.3-7.5,4-10.3s6-4.2,10.1-4.2s7.4,1.4,9.9,4.2
		c2.5,2.8,3.8,6.4,3.8,10.8v1.4h-21.4c0.2,2.2,1.1,4,2.7,5.4c1.6,1.5,3.6,2.2,6.1,2.2c1.4,0,2.8-0.3,4.3-0.8
		c1.4-0.5,2.6-1.3,3.6-2.2l2.8,4C1024.8,303.9,1021.1,305.3,1016.4,305.3z M1023.7,288.5c-0.1-1.9-0.8-3.6-2.1-5.1s-3.2-2.2-5.7-2.2
		c-2.4,0-4.2,0.7-5.6,2.2c-1.3,1.5-2.1,3.2-2.2,5.1H1023.7z"/>
	<path d="M1068.8,305.3c-5.7,0-10.5-1.8-14.3-5.5s-5.7-8.4-5.7-14.2c0-5.8,1.9-10.6,5.7-14.2c3.8-3.7,8.6-5.5,14.3-5.5
		c6.7,0,11.8,2.9,15.4,8.6l-5.7,2.9c-1-1.6-2.3-3-4-4s-3.6-1.5-5.6-1.5c-3.8,0-6.9,1.3-9.4,3.9s-3.8,5.9-3.8,9.9s1.3,7.3,3.8,9.9
		s5.6,3.9,9.4,3.9c2,0,3.9-0.5,5.6-1.5s3.1-2.4,4-4l5.7,2.9C1080.5,302.4,1075.4,305.3,1068.8,305.3z"/>
	<path d="M1101.9,305.3c-4.3,0-7.7-1.4-10.3-4.2c-2.6-2.8-3.9-6.3-3.9-10.3c0-4.1,1.3-7.5,3.9-10.3s6-4.2,10.3-4.2s7.8,1.4,10.4,4.2
		c2.6,2.8,3.9,6.2,3.9,10.3c0,4.1-1.3,7.6-3.9,10.4C1109.6,303.9,1106.2,305.3,1101.9,305.3z M1101.9,299.9c2.5,0,4.4-0.9,5.9-2.7
		c1.4-1.8,2.2-4,2.2-6.6s-0.7-4.7-2.2-6.5c-1.4-1.8-3.4-2.7-5.9-2.7c-2.4,0-4.4,0.9-5.8,2.7c-1.4,1.8-2.1,3.9-2.1,6.5
		s0.7,4.8,2.1,6.6S1099.4,299.9,1101.9,299.9z"/>
	<path d="M1162.2,304.6h-6v-18.1c0-3.3-1.5-5-4.5-5c-1.3,0-2.5,0.4-3.7,1.1s-2.1,1.6-2.8,2.6v19.4h-6v-18.1c0-3.3-1.5-5-4.6-5
		c-1.2,0-2.4,0.4-3.6,1.1s-2.1,1.6-2.8,2.6v19.3h-6v-27.7h6v3.8c0.7-1,1.9-2,3.6-3s3.5-1.5,5.4-1.5c4,0,6.5,1.7,7.6,5.1
		c0.9-1.4,2.2-2.6,3.9-3.6c1.7-1,3.6-1.5,5.5-1.5c5.3,0,8,2.8,8,8.4V304.6z"/>
	<path d="M1184.9,305.3c-3.7,0-6.6-1.5-8.9-4.5v14.4h-6V277h6v3.8c2.2-3,5.2-4.5,8.9-4.5c3.6,0,6.6,1.3,8.9,3.9s3.4,6.1,3.4,10.6
		s-1.1,8-3.4,10.6C1191.5,303.9,1188.5,305.3,1184.9,305.3z M1183.1,299.9c2.4,0,4.3-0.9,5.7-2.6c1.4-1.7,2.1-3.9,2.1-6.6
		s-0.7-4.9-2.1-6.6s-3.3-2.6-5.7-2.6c-1.4,0-2.7,0.4-4.1,1.1c-1.3,0.7-2.4,1.6-3,2.6v10.9c0.7,1,1.7,1.9,3,2.6
		C1180.4,299.6,1181.7,299.9,1183.1,299.9z"/>
	<path d="M1226,304.6h-6v-3c-2.1,2.4-5.1,3.7-8.9,3.7c-2.5,0-4.8-0.8-6.7-2.4c-1.9-1.6-2.9-3.9-2.9-6.7c0-2.9,1-5.2,2.9-6.7
		s4.2-2.3,6.7-2.3c3.9,0,6.9,1.2,8.9,3.6v-4.1c0-1.6-0.6-2.9-1.8-3.8c-1.2-0.9-2.8-1.4-4.7-1.4c-3.1,0-5.8,1.2-8.2,3.5l-2.5-4.2
		c3.1-3,7-4.5,11.6-4.5c3.4,0,6.2,0.8,8.3,2.4c2.1,1.6,3.2,4.1,3.2,7.6L1226,304.6L1226,304.6z M1213.4,301.1c3,0,5.2-1,6.6-2.9V294
		c-1.4-1.9-3.6-2.9-6.6-2.9c-1.7,0-3.1,0.5-4.2,1.4s-1.7,2.1-1.7,3.6s0.6,2.7,1.7,3.6C1210.3,300.7,1211.7,301.1,1213.4,301.1z"/>
	<path d="M1258.5,304.6h-6v-17.3c0-3.8-1.9-5.7-5.6-5.7c-1.5,0-2.8,0.4-4.1,1.1c-1.3,0.7-2.3,1.6-3,2.6v19.3h-6v-27.7h6v3.8
		c1-1.2,2.4-2.3,4.1-3.2c1.7-0.9,3.6-1.3,5.6-1.3c2.9,0,5.2,0.8,6.7,2.3s2.3,3.7,2.3,6.6V304.6z"/>
	<path d="M1265.1,315.4l0.9-5.4c0.7,0.3,1.5,0.5,2.3,0.5c1.9,0,3.3-0.8,4-2.4l1.4-3.2l-11.4-28h6.4l8.1,20.8l8.1-20.8h6.5
		l-13.4,32.7c-1.6,4.1-4.8,6.2-9.5,6.2C1267.2,315.8,1266.1,315.7,1265.1,315.4z"/>
</g>
</svg>
