<?xml version="1.0" encoding="utf-8"?>
<!-- Generator: Adobe Illustrator 27.0.0, SVG Export Plug-In . SVG Version: 6.00 Build 0)  -->
<svg version="1.1" id="Layer_1" xmlns="http://www.w3.org/2000/svg" xmlns:xlink="http://www.w3.org/1999/xlink" x="0px" y="0px"
	 viewBox="0 0 603.4 165.8" style="enable-background:new 0 0 603.4 165.8;" xml:space="preserve">
<style type="text/css">
	.st0{fill:#F79853;}
	.st1{fill:#231F20;}
</style>
<g>
	<g id="g16">
		<path id="path2" class="st0" d="M84.4,24.2c0,22.1-1.1,28.7-3.9,24.2c-2.2-3.6-14.6-7.8-23.6-7.8C43.6,40.5,36,45.1,16.4,64.8
			L0,81.4h25.1C38.8,81.4,50,81.7,50,82s-1.6,3.6-3.7,7.3c-5.2,9.1-6.3,19.3-3.1,30c2.2,7.8,4.3,10.5,21.1,27.5l18.5,19L83,140
			v-25.7l6,3.7c9.3,5.8,20.6,7.5,31.1,4.5c7.8-2.2,10.3-4.3,27.2-21.1L166,82.9h-24.9c-13.9,0-25.1-0.6-25.1-1.3s0.9-2.1,2.1-3
			c3.1-2.5,6.9-14.6,6.9-21.8c0-13.1-3.7-19.6-22.5-38.7L84.5,0L84.4,24.2z"/>
		<path id="path4" d="M351.8,70.2c0,37,0.1,38.1,3,38.1c2.2,0,3-1.1,3-4v-4l4.6,4.5c4,3.9,5.5,4.3,14.5,4.3
			c11.4,0,17.9-3.4,22.3-11.7c3.6-6.9,3.1-19-1-25.5c-7.5-12.2-27-15.2-36.6-5.7l-3.7,3.7v-19c0-17.8-0.1-18.8-3-18.8
			S351.8,33.2,351.8,70.2L351.8,70.2z M386.1,68.7c8.8,4.5,11.6,17.9,6,27.3c-5.7,9.3-19.1,10.8-27.8,2.8
			C348,83.9,366.4,58.5,386.1,68.7z"/>
		<path id="path6" d="M203.6,54.8c-0.4,6-0.8,6.4-5.2,6.9c-3.7,0.3-4.9,1.2-4.9,3.4s1.1,2.8,5.2,2.8h5.2v17.9
			c0,16.1,0.3,18.2,3.1,21.1c4.2,4.2,15.4,3.6,16-1.1c0.4-2.7-0.1-3-4.2-2.4c-7.9,1.2-9-1.2-9-19.3V68h6.7c5.7,0,6.7-0.4,6.7-3
			s-1.1-3-6.7-3h-6.7v-6.7c0-5.7-0.4-6.7-2.8-6.7S204,49.7,203.6,54.8L203.6,54.8z"/>
		<path id="path8" d="M424.8,63.8c-15.1,8.7-15.7,34.1-0.9,43c9.4,5.8,29,2.5,32-5.4c1.5-4-2.8-5.2-6.6-1.8
			c-4.6,4.3-17,5.5-22.3,1.9c-3.1-1.9-8.1-10.2-8.1-13.3c0-0.4,9-1.1,19.9-1.2l19.7-0.4l-0.3-5.8C457.2,64.5,439.3,55.3,424.8,63.8
			L424.8,63.8z M445.4,69.5c4.3,2.5,7.9,9.4,6.1,11.3c-0.5,0.4-7.9,0.4-16.7,0.3L419,80.7l2.7-5.1C426.6,66.6,436.4,63.9,445.4,69.5
			z"/>
		<path id="path10" d="M481.5,63.8c-15.1,8.7-15.7,34.1-0.9,43c9.4,5.8,29,2.5,32-5.4c1.5-4-2.8-5.2-6.6-1.8
			c-4.6,4.3-17,5.5-22.3,1.9c-3.1-2.1-8.1-10.2-8.1-13.4c0-0.4,8.8-0.8,19.4-0.8h19.4v-6.1C514.5,64.8,496.3,55.1,481.5,63.8
			L481.5,63.8z M502,69.6c4.5,2.7,8.1,9.3,6.3,11.2c-0.5,0.4-7.9,0.4-16.7,0.3l-15.8-0.4l2.7-5.1C483.3,66.5,493,63.9,502,69.6z"/>
		<path id="path12" d="M227.8,62.9c0,0.5,3.1,10.9,7,23.1c6.7,21.2,7.2,22.4,10.8,22c3.1-0.4,4.3-2.5,9.6-18.1
			c3.3-9.7,6.6-17,7.2-16.4s3.9,8.5,7,17.6c5.2,14.5,6.3,16.4,9.6,16.9c3.9,0.4,4.3-0.8,14.8-36.7l2.7-9.3h-3.4
			c-3,0-3.9,1.8-8.4,18.7c-2.8,10.3-5.5,18.2-6.1,17.5c-0.6-0.6-3.7-8.8-7-18.2c-5.2-15.1-6.4-17.2-9.6-17.6
			c-3.3-0.5-3.9,0.8-9.4,17.6c-3.1,9.9-6.3,17.9-6.7,17.9c-0.6,0-3.3-8.1-6-17.9c-4.5-16.4-5.2-17.9-8.5-17.9
			C229.4,62,227.8,62.5,227.8,62.9L227.8,62.9z"/>
		<path id="path14" d="M299.5,62.6c0,0.3,4,10.3,9,22.4s9,23,9,24.2c0,4-6.1,16.7-8.5,17.8c-1.3,0.4-3.6,0.4-4.9,0
			c-1.6-0.4-3,0.2-3.6,1.6c-1.3,3.4,0.3,5.1,5.1,5.1c8.5,0,12.4-6,24.8-37.3c14.3-36.6,13.9-34.8,9.4-34c-3,0.3-4.5,3-10,17.6
			c-3.6,9.4-7,17.6-7.5,18.2c-0.6,0.6-4.3-7.3-8.4-17.5c-6.5-16.5-7.9-18.7-11-18.7C301.1,62,299.5,62.3,299.5,62.6L299.5,62.6z"/>
	</g>
	<g>
		<path class="st1" d="M363.6,133.7l-1.2-3h-7.1l-1.2,3h-2.4l5.7-14.4h2.7l5.7,14.4H363.6L363.6,133.7z M358.9,121.1l-2.9,7.6h5.8
			L358.9,121.1L358.9,121.1z"/>
		<path class="st1" d="M385.7,133.7v-11.4l-4.7,11.4h-0.9l-4.7-11.4v11.4h-2.2v-14.4h3.1l4.2,10.4l4.2-10.3h3.1v14.4L385.7,133.7
			L385.7,133.7z"/>
		<path class="st1" d="M390.4,128.4c0-3,2-5.5,5.3-5.5s5.3,2.5,5.3,5.5c0,3-2,5.5-5.3,5.5S390.4,131.5,390.4,128.4z M398.9,128.4
			c0-2-1.1-3.7-3.2-3.7s-3.2,1.8-3.2,3.7c0,1.9,1.2,3.8,3.2,3.8S398.9,130.4,398.9,128.4z"/>
		<path class="st1" d="M410.8,133.7v-1.5c-0.8,1-2,1.8-3.4,1.8c-2.7,0-4.7-2.1-4.7-5.5c0-3.4,1.9-5.5,4.7-5.5c1.3,0,2.6,0.7,3.4,1.8
			v-5.5h1.9v14.4H410.8L410.8,133.7z M410.8,126.2c-0.5-0.8-1.7-1.5-2.9-1.5c-1.9,0-3.1,1.6-3.1,3.8c0,2.2,1.2,3.7,3.1,3.7
			c1.2,0,2.4-0.7,2.9-1.5V126.2L410.8,126.2z"/>
		<path class="st1" d="M422.9,133.7v-1.4c-0.8,0.9-2.1,1.7-3.7,1.7c-2.2,0-3.3-1.1-3.3-3.3v-7.4h1.9v6.7c0,1.7,0.9,2.2,2.2,2.2
			c1.2,0,2.3-0.7,2.9-1.5v-7.5h1.9v10.4L422.9,133.7L422.9,133.7z"/>
		<path class="st1" d="M428,130.9c0.7,0.8,2.1,1.5,3.5,1.5s2.2-0.6,2.2-1.5c0-1-1.2-1.4-2.5-1.7c-1.8-0.4-3.9-0.9-3.9-3.1
			c0-1.7,1.4-3.1,4-3.1c1.8,0,3.1,0.7,4,1.5l-0.9,1.4c-0.6-0.7-1.8-1.3-3.1-1.3s-2.1,0.5-2.1,1.4s1.1,1.2,2.4,1.5
			c1.8,0.4,4,0.9,4,3.3c0,1.8-1.5,3.2-4.2,3.2c-1.8,0-3.3-0.5-4.3-1.6L428,130.9L428,130.9z"/>
		<path class="st1" d="M443.1,126.5c0-4.4,3.3-7.4,7.4-7.4c2.8,0,4.6,1.4,5.7,3.1l-1.8,1c-0.8-1.2-2.2-2.1-3.9-2.1
			c-2.9,0-5.2,2.3-5.2,5.5c0,3.2,2.2,5.5,5.2,5.5c1.7,0,3.1-0.9,3.9-2.1l1.8,1c-1.1,1.7-2.9,3.1-5.7,3.1
			C446.4,133.9,443.1,130.9,443.1,126.5z"/>
		<path class="st1" d="M458.3,133.7v-10.4h1.9v1.6c0.8-1,2-1.8,3.4-1.8v2c-0.2,0-0.4-0.1-0.7-0.1c-1,0-2.3,0.7-2.7,1.5v7.3
			L458.3,133.7L458.3,133.7z"/>
		<path class="st1" d="M470.2,123c3.1,0,5.1,2.4,5.1,5.6v0.5H467c0.1,1.8,1.5,3.2,3.5,3.2c1.1,0,2.3-0.4,3.1-1.2l0.9,1.3
			c-1,1-2.5,1.6-4.2,1.6c-3.1,0-5.4-2.2-5.4-5.5C465,125.4,467.1,123,470.2,123L470.2,123z M467,127.7h6.4c0-1.4-1-3.1-3.2-3.1
			S467.1,126.3,467,127.7L467,127.7z"/>
		<path class="st1" d="M484.1,133.7v-1.1c-0.8,0.9-2,1.4-3.4,1.4c-1.7,0-3.6-1.2-3.6-3.5s1.9-3.4,3.6-3.4c1.4,0,2.6,0.4,3.4,1.4
			v-1.7c0-1.3-1.1-2.1-2.5-2.1c-1.2,0-2.2,0.4-3.1,1.4l-0.8-1.3c1.2-1.2,2.6-1.7,4.3-1.7c2.3,0,4.2,1,4.2,3.7v7L484.1,133.7
			L484.1,133.7z M484.1,129.6c-0.6-0.8-1.6-1.2-2.7-1.2c-1.4,0-2.4,0.8-2.4,2.1s1,2.1,2.4,2.1c1.1,0,2.1-0.4,2.7-1.2V129.6
			L484.1,129.6z"/>
		<path class="st1" d="M489.6,131.4V125h-1.7v-1.7h1.7v-2.8h2v2.8h2.1v1.7h-2.1v6c0,0.7,0.4,1.3,1,1.3c0.5,0,0.9-0.2,1.1-0.4
			l0.5,1.5c-0.4,0.4-1,0.7-2,0.7C490.4,133.9,489.6,133,489.6,131.4L489.6,131.4z"/>
		<path class="st1" d="M500.4,123c3.1,0,5.1,2.4,5.1,5.6v0.5h-8.2c0.1,1.8,1.5,3.2,3.5,3.2c1.1,0,2.3-0.4,3.1-1.2l0.9,1.3
			c-1,1-2.5,1.6-4.2,1.6c-3.1,0-5.4-2.2-5.4-5.5C495.2,125.4,497.3,123,500.4,123L500.4,123z M497.2,127.7h6.4c0-1.4-1-3.1-3.2-3.1
			S497.3,126.3,497.2,127.7L497.2,127.7z"/>
		<path class="st1" d="M512.9,126.5c0-4.4,3.3-7.4,7.4-7.4c2.8,0,4.6,1.4,5.7,3.1l-1.8,1c-0.8-1.2-2.2-2.1-3.9-2.1
			c-2.9,0-5.2,2.3-5.2,5.5c0,3.2,2.2,5.5,5.2,5.5c1.7,0,3.1-0.9,3.9-2.1l1.8,1c-1.2,1.7-2.9,3.1-5.7,3.1
			C516.2,133.9,512.9,130.9,512.9,126.5z"/>
		<path class="st1" d="M527.5,128.4c0-3,2-5.5,5.3-5.5s5.3,2.5,5.3,5.5c0,3-2,5.5-5.3,5.5S527.5,131.5,527.5,128.4z M536,128.4
			c0-2-1.2-3.7-3.2-3.7s-3.2,1.8-3.2,3.7c0,1.9,1.2,3.8,3.2,3.8S536,130.4,536,128.4z"/>
		<path class="st1" d="M553.2,133.7v-7c0-1.2-0.5-2-1.8-2c-1.1,0-2.1,0.7-2.6,1.5v7.5h-1.9v-7c0-1.2-0.5-2-1.8-2c-1,0-2,0.8-2.5,1.5
			v7.5h-1.9v-10.4h1.9v1.5c0.4-0.7,1.8-1.7,3.4-1.7s2.5,0.8,2.8,1.9c0.6-1,2-1.9,3.5-1.9c1.9,0,3,1.1,3,3.2v7.5L553.2,133.7
			L553.2,133.7z"/>
		<path class="st1" d="M560.2,137.6h-1.9v-14.4h1.9v1.5c0.8-1,2-1.8,3.4-1.8c2.7,0,4.7,2.1,4.7,5.5c0,3.4-1.9,5.5-4.7,5.5
			c-1.4,0-2.6-0.6-3.4-1.8V137.6L560.2,137.6z M563.1,124.7c-1.2,0-2.4,0.7-2.9,1.5v4.4c0.5,0.8,1.7,1.5,2.9,1.5
			c1.9,0,3.1-1.6,3.1-3.8C566.2,126.1,565,124.7,563.1,124.7L563.1,124.7z"/>
		<path class="st1" d="M577.1,133.7v-1.1c-0.8,0.9-2,1.4-3.4,1.4c-1.7,0-3.6-1.2-3.6-3.5s1.9-3.4,3.6-3.4c1.4,0,2.6,0.4,3.4,1.4
			v-1.7c0-1.3-1.1-2.1-2.5-2.1c-1.2,0-2.2,0.4-3.1,1.4l-0.8-1.3c1.2-1.2,2.6-1.7,4.3-1.7c2.3,0,4.2,1,4.2,3.7v7L577.1,133.7
			L577.1,133.7z M577.1,129.6c-0.6-0.8-1.6-1.2-2.7-1.2c-1.4,0-2.4,0.8-2.4,2.1s1,2.1,2.4,2.1c1.1,0,2.1-0.4,2.7-1.2V129.6
			L577.1,129.6z"/>
		<path class="st1" d="M589.2,133.7V127c0-1.7-0.9-2.3-2.2-2.3c-1.2,0-2.3,0.7-2.9,1.5v7.5h-1.9v-10.4h1.9v1.5
			c0.7-0.8,2.1-1.7,3.7-1.7c2.2,0,3.3,1.2,3.3,3.4v7.3L589.2,133.7L589.2,133.7z"/>
		<path class="st1" d="M594,136c0.2,0.1,0.6,0.2,0.9,0.2c0.7,0,1.2-0.2,1.5-1l0.6-1.4l-4.3-10.5h2.1l3.3,8.2l3.3-8.2h2.1l-5.1,12.4
			c-0.7,1.6-1.8,2.2-3.3,2.2c-0.3,0-0.9-0.1-1.2-0.1L594,136L594,136z"/>
	</g>
</g>
</svg>
